<svg width="33" height="33" viewBox="0 0 33 33" fill="none" xmlns="http://www.w3.org/2000/svg">
<g clip-path="url(#clip0_1_4165)">
<path d="M17.9222 6.0171C17.6701 6.01757 17.4497 5.84734 17.3865 5.60334C17.3233 5.35935 17.4332 5.10348 17.6538 4.98146C21.8759 2.63952 27.0337 0.89411 28.8448 3.02616C29.0431 3.25861 29.0154 3.60778 28.783 3.80607C28.5505 4.00435 28.2013 3.97665 28.003 3.74421C27.0729 2.65112 23.4037 3.05709 18.1895 5.95027C18.1074 5.99457 18.0155 6.01755 17.9222 6.0171Z" fill="#E57E25"/>
<path d="M4.69362 20.7225C4.46713 20.7226 4.26352 20.5844 4.17994 20.3739C3.42378 18.4711 5.1366 15.1979 8.76439 11.6165C8.98463 11.425 9.31589 11.4379 9.5206 11.6459C9.72531 11.854 9.73279 12.1854 9.53767 12.4025C5.89828 15.9983 4.74002 18.792 5.2062 19.9658C5.27392 20.1358 5.25301 20.3284 5.15036 20.4799C5.04771 20.6314 4.87665 20.7223 4.69362 20.7225Z" fill="#E57E25"/>
<path d="M15.6349 6.09758C15.5405 6.09761 15.4477 6.07346 15.3654 6.02743C9.99769 3.01826 6.47871 2.69514 5.47841 3.66561C5.26 3.87915 4.90983 3.87519 4.6963 3.65677C4.48276 3.43836 4.48672 3.08819 4.70513 2.87466C6.66871 0.963547 11.7751 2.75204 15.9006 5.06304C16.1203 5.18579 16.2293 5.44155 16.1656 5.68503C16.1019 5.92852 15.8816 6.09816 15.6299 6.09758H15.6349Z" fill="#E57E25"/>
<path d="M28.7421 20.6676C28.5624 20.6676 28.3938 20.5801 28.2904 20.433C28.187 20.286 28.1616 20.0978 28.2224 19.9286C28.7432 18.4798 27.0376 15.5259 23.8765 12.4029C23.6654 12.1876 23.666 11.8427 23.8779 11.6281C24.0897 11.4135 24.4346 11.4086 24.6526 11.6169C28.2257 15.147 29.9485 18.3936 29.2613 20.302C29.1826 20.5211 28.975 20.6674 28.7421 20.6676Z" fill="#E57E25"/>
<path d="M12.2882 28.03H10.6312C10.3261 28.03 10.0789 27.7827 10.0789 27.4776C10.0789 27.1726 10.3261 26.9253 10.6312 26.9253H12.2882C12.5933 26.9253 12.8406 27.1726 12.8406 27.4776C12.8406 27.7827 12.5933 28.03 12.2882 28.03Z" fill="#7F8284"/>
<path d="M22.7827 28.03H21.1257C20.8207 28.03 20.5734 27.7827 20.5734 27.4776C20.5734 27.1726 20.8207 26.9253 21.1257 26.9253H22.7827C23.0878 26.9253 23.3351 27.1726 23.3351 27.4776C23.3351 27.7827 23.0878 28.03 22.7827 28.03Z" fill="#7F8284"/>
<path d="M26.605 13.5257C26.3862 15.7908 25.3933 17.9113 23.7936 19.5297C22.1121 21.1947 21.1537 23.4547 21.1257 25.8209H12.2882C12.2844 24.6501 12.0419 23.4924 11.5757 22.4185C11.1084 21.3428 10.4454 20.3633 9.62043 19.5297C7.07597 16.9485 6.1399 13.186 7.17823 9.7134C8.21656 6.24081 11.0643 3.60973 14.6081 2.84892C14.8633 2.79684 15.0474 2.57358 15.05 2.31315V2.07012C15.05 1.15496 15.7918 0.413086 16.707 0.413086C17.6222 0.413086 18.364 1.15496 18.364 2.07012V2.31315C18.3666 2.57358 18.5507 2.79684 18.8059 2.84892C23.7383 3.9131 27.0913 8.50333 26.605 13.5257Z" fill="#F0C419"/>
<path d="M24.8386 13.5257C24.689 15.7136 23.8841 17.8058 22.5287 19.5297C21.1043 21.3167 20.3312 23.5357 20.337 25.8209H13.077C13.0758 24.6618 12.8779 23.5113 12.4915 22.4185C12.1234 21.3716 11.5803 20.3948 10.8853 19.5297C9.52979 17.8058 8.72488 15.7136 8.57535 13.5257C8.17601 8.33922 11.0532 3.87076 14.9825 2.84892C15.2094 2.77117 15.3574 2.55266 15.3454 2.31315V2.07012C15.2708 1.2387 15.8769 0.501121 16.707 0.413086C17.0846 0.421532 17.4382 0.600171 17.6691 0.899148C17.9326 1.23211 18.0736 1.64554 18.0685 2.07012V2.31315C18.0565 2.55266 18.2045 2.77117 18.4314 2.84892C22.3607 3.87076 25.2379 8.33922 24.8386 13.5257Z" fill="#F3D55B"/>
<path d="M21.1257 25.8208V29.1349C21.1239 29.7442 20.6304 30.2377 20.021 30.2395H13.3929C12.7835 30.2377 12.29 29.7442 12.2882 29.1349V25.8208H21.1257Z" fill="#95A5A5"/>
<path d="M19.4688 30.5159C19.4688 31.5819 18.2316 32.4491 16.7071 32.4491C15.1826 32.4491 13.9454 31.5819 13.9454 30.5159C13.9452 30.4229 13.9563 30.3301 13.9785 30.2397H19.4357C19.4579 30.3301 19.469 30.4229 19.4688 30.5159Z" fill="#393F4A"/>
<path d="M7.17753 21.9546C6.36788 21.9993 5.56631 21.7739 4.89856 21.3139C4.73233 21.1964 4.64421 20.997 4.66924 20.795C4.69427 20.5929 4.82839 20.4211 5.01827 20.3477C5.20815 20.2743 5.423 20.3113 5.57739 20.444C6.36945 21.0609 8.14855 20.977 10.4584 20.2147C12.5465 19.4975 14.5466 18.546 16.4204 17.3785C17.1473 16.9366 17.8565 16.4732 18.5359 16.0048C21.2534 14.1666 23.7105 11.9702 25.8407 9.47497C27.6424 7.27941 28.54 5.31969 28.2423 4.23213C28.164 3.93875 28.3373 3.63724 28.6301 3.55709C28.923 3.47693 29.2256 3.64817 29.3077 3.94049C29.8253 5.83116 28.1727 8.3747 26.6951 10.1753C24.4995 12.7501 21.9665 15.0168 19.1645 16.9139C18.4702 17.3945 17.7405 17.8684 16.9949 18.323C15.0482 19.5346 12.9704 20.5216 10.8015 21.2653C9.6355 21.6778 8.4135 21.9103 7.17753 21.9546Z" fill="#F29C1F"/>
<path d="M26.2351 21.9587C24.998 21.9166 23.775 21.6822 22.61 21.2639C20.4425 20.5202 18.366 19.5335 16.4205 18.3226C15.6737 17.8675 14.9441 17.3936 14.2498 16.9125C11.4476 15.0154 8.91433 12.7487 6.71856 10.1739C5.22336 8.35116 3.55915 5.78221 4.12254 3.88878C4.21115 3.59852 4.51734 3.43411 4.80824 3.52061C5.09914 3.6071 5.26577 3.9121 5.18138 4.20362C4.86047 5.28566 5.75472 7.25587 7.57469 9.47353C9.70449 11.9688 12.1612 14.1654 14.8783 16.0039C15.5555 16.4728 16.2669 16.9357 16.9949 17.3787C18.8675 18.5456 20.8663 19.4965 22.953 20.2133C25.3718 21.0114 27.2387 21.06 27.9495 20.3436C28.1646 20.1272 28.5144 20.1261 28.7308 20.3412C28.9473 20.5562 28.9484 20.906 28.7333 21.1225C28.047 21.726 27.1464 22.0274 26.2351 21.9587Z" fill="#F29C1F"/>
<path d="M4.83164 22.5068C5.89932 22.5068 6.76484 21.6413 6.76484 20.5736C6.76484 19.5059 5.89932 18.6404 4.83164 18.6404C3.76396 18.6404 2.89844 19.5059 2.89844 20.5736C2.89844 21.6413 3.76396 22.5068 4.83164 22.5068Z" fill="#3B97D3"/>
<path d="M4.83164 5.38398C5.89932 5.38398 6.76484 4.51846 6.76484 3.45078C6.76484 2.3831 5.89932 1.51758 4.83164 1.51758C3.76396 1.51758 2.89844 2.3831 2.89844 3.45078C2.89844 4.51846 3.76396 5.38398 4.83164 5.38398Z" fill="#3B97D3"/>
<path d="M28.5825 22.5068C29.6502 22.5068 30.5157 21.6413 30.5157 20.5736C30.5157 19.5059 29.6502 18.6404 28.5825 18.6404C27.5148 18.6404 26.6493 19.5059 26.6493 20.5736C26.6493 21.6413 27.5148 22.5068 28.5825 22.5068Z" fill="#3B97D3"/>
<path d="M28.5825 5.38398C29.6502 5.38398 30.5157 4.51846 30.5157 3.45078C30.5157 2.3831 29.6502 1.51758 28.5825 1.51758C27.5148 1.51758 26.6493 2.3831 26.6493 3.45078C26.6493 4.51846 27.5148 5.38398 28.5825 5.38398Z" fill="#3B97D3"/>
<path d="M9.79439 9.661C9.60288 9.661 9.42504 9.56179 9.32443 9.39883C9.22382 9.23587 9.2148 9.03243 9.3006 8.86121C10.3378 6.78404 12.1992 5.23761 14.4313 4.59878C14.6233 4.53768 14.8333 4.58596 14.9794 4.72478C15.1254 4.86359 15.1843 5.0709 15.133 5.26573C15.0817 5.46057 14.9283 5.61202 14.7329 5.66093C12.7992 6.2152 11.1869 7.5556 10.2887 9.35556C10.1952 9.54283 10.0037 9.6611 9.79439 9.661Z" fill="white"/>
</g>
<defs>
<clipPath id="clip0_1_4165">
<rect width="32.0359" height="32.0359" fill="white" transform="translate(0.689026 0.413086)"/>
</clipPath>
</defs>
</svg>
