<svg width="555" height="60" viewBox="0 0 555 60" fill="none" xmlns="http://www.w3.org/2000/svg">
<rect width="555" height="60" rx="10" fill="white"/>
<rect x="502" y="7" width="46" height="46" rx="8" fill="#9C4DF4"/>
<path d="M534.71 38.2899L531 34.6099C532.44 32.8143 533.138 30.5352 532.949 28.2412C532.76 25.9472 531.7 23.8127 529.986 22.2765C528.271 20.7404 526.034 19.9194 523.733 19.9824C521.432 20.0453 519.243 20.9875 517.615 22.615C515.988 24.2426 515.045 26.4319 514.982 28.7328C514.92 31.0337 515.741 33.2713 517.277 34.9854C518.813 36.6996 520.947 37.76 523.241 37.9487C525.535 38.1374 527.814 37.44 529.61 35.9999L533.29 39.6799C533.383 39.7736 533.494 39.848 533.615 39.8988C533.737 39.9496 533.868 39.9757 534 39.9757C534.132 39.9757 534.263 39.9496 534.385 39.8988C534.506 39.848 534.617 39.7736 534.71 39.6799C534.89 39.4934 534.991 39.2442 534.991 38.9849C534.991 38.7256 534.89 38.4764 534.71 38.2899ZM524 35.9999C522.616 35.9999 521.262 35.5894 520.111 34.8202C518.96 34.051 518.063 32.9578 517.533 31.6787C517.003 30.3996 516.864 28.9921 517.135 27.6343C517.405 26.2764 518.071 25.0291 519.05 24.0502C520.029 23.0712 521.277 22.4045 522.634 22.1344C523.992 21.8643 525.4 22.0029 526.679 22.5327C527.958 23.0626 529.051 23.9598 529.82 25.1109C530.589 26.2621 531 27.6154 531 28.9999C531 30.8564 530.263 32.6369 528.95 33.9497C527.637 35.2624 525.857 35.9999 524 35.9999Z" fill="white"/>
<path d="M25.136 35.176C27.728 35.176 29.136 33.768 29.136 31.912C29.136 29.944 27.616 29.208 25.424 28.696C23.616 28.264 22.672 27.912 22.672 26.888C22.672 26.008 23.536 25.224 24.768 25.224C25.888 25.224 26.992 25.72 27.92 26.568L28.848 25.352C27.792 24.424 26.528 23.8 24.832 23.8C22.624 23.8 21.024 25.192 21.024 27.032C21.024 29.016 22.512 29.688 24.752 30.216C26.592 30.632 27.504 31.032 27.504 32.072C27.504 32.952 26.72 33.752 25.2 33.752C23.712 33.752 22.56 33.144 21.584 32.216L20.608 33.416C21.776 34.536 23.296 35.176 25.136 35.176ZM34.8659 33.784C33.4419 33.784 32.4339 32.792 32.2259 31.416H38.7379C38.7379 28.456 37.2819 26.536 34.7539 26.536C32.4659 26.536 30.6259 28.36 30.6259 30.84C30.6259 33.384 32.5779 35.192 34.8819 35.192C36.0499 35.192 37.4899 34.696 38.2259 33.912L37.2339 32.888C36.7379 33.4 35.7299 33.784 34.8659 33.784ZM34.8179 27.944C36.2419 27.944 37.0259 28.872 37.2019 30.152H32.2419C32.4979 28.808 33.5379 27.944 34.8179 27.944ZM42.2379 28.312V26.728H40.6539V35H42.2379V30.296C42.3819 28.856 43.5979 27.912 45.3099 27.912V26.536C43.8859 26.536 42.7659 27.224 42.2379 28.312ZM50.3271 26.536C49.4151 26.536 48.3751 26.776 47.1911 27.368L47.7671 28.536C48.4871 28.168 49.2871 27.848 50.1031 27.848C51.7511 27.848 52.2311 28.952 52.2311 29.992V30.248C51.4311 29.976 50.5511 29.8 49.7351 29.8C47.9111 29.8 46.4231 30.904 46.4231 32.552C46.4231 34.168 47.7191 35.192 49.4791 35.192C50.4871 35.192 51.6231 34.728 52.2311 33.864V35H53.7831V29.992C53.7831 27.944 52.5511 26.536 50.3271 26.536ZM49.7831 33.944C48.7431 33.944 47.9431 33.4 47.9431 32.504C47.9431 31.608 48.8711 30.984 49.9751 30.984C50.7911 30.984 51.5591 31.096 52.2311 31.304V32.408C51.9591 33.432 50.8071 33.944 49.7831 33.944ZM59.9779 35.192C61.2099 35.192 62.2819 34.68 63.0819 33.864L62.0099 32.888C61.4979 33.464 60.7619 33.816 59.9939 33.816C58.4739 33.816 57.2259 32.472 57.2259 30.856C57.2259 29.256 58.4739 27.912 59.9779 27.912C60.7459 27.912 61.4659 28.248 61.9619 28.808L63.0339 27.816C62.2499 27.032 61.1779 26.536 59.9939 26.536C57.6259 26.536 55.6259 28.504 55.6259 30.856C55.6259 33.208 57.6259 35.192 59.9779 35.192ZM68.985 26.536C67.849 26.536 66.841 27.128 66.345 27.96V23.816H64.777V35H66.345V29.864C66.345 28.792 67.385 27.912 68.633 27.912C69.753 27.912 70.537 28.776 70.537 30.008V35H72.089V29.736C72.089 27.864 70.809 26.536 68.985 26.536ZM84.2613 35.192C85.8293 35.192 87.2693 34.52 88.3093 33.464L87.1733 32.376C86.4373 33.176 85.3973 33.704 84.2613 33.704C82.0693 33.704 80.2133 31.784 80.2133 29.496C80.2133 27.224 82.0693 25.304 84.2613 25.304C85.3973 25.304 86.4373 25.832 87.1733 26.632L88.3093 25.544C87.2693 24.472 85.8293 23.816 84.2613 23.816C81.1733 23.816 78.5493 26.408 78.5493 29.496C78.5493 32.584 81.1733 35.192 84.2613 35.192ZM89.8864 35H91.4544V23.816H89.8864V35ZM97.2334 26.536C96.3214 26.536 95.2814 26.776 94.0974 27.368L94.6734 28.536C95.3934 28.168 96.1934 27.848 97.0094 27.848C98.6574 27.848 99.1374 28.952 99.1374 29.992V30.248C98.3374 29.976 97.4574 29.8 96.6414 29.8C94.8174 29.8 93.3294 30.904 93.3294 32.552C93.3294 34.168 94.6254 35.192 96.3854 35.192C97.3934 35.192 98.5294 34.728 99.1374 33.864V35H100.689V29.992C100.689 27.944 99.4574 26.536 97.2334 26.536ZM96.6894 33.944C95.6494 33.944 94.8494 33.4 94.8494 32.504C94.8494 31.608 95.7774 30.984 96.8814 30.984C97.6974 30.984 98.4654 31.096 99.1374 31.304V32.408C98.8654 33.432 97.7134 33.944 96.6894 33.944ZM105.972 35.192C107.78 35.192 109.108 34.2 109.108 32.632C109.108 30.984 107.652 30.536 106.292 30.136C104.9 29.704 104.388 29.512 104.388 28.872C104.388 28.248 105.028 27.896 105.844 27.896C106.564 27.896 107.396 28.168 108.196 28.664L108.9 27.496C108.004 26.904 106.916 26.536 105.844 26.536C104.084 26.536 102.82 27.528 102.836 29.048C102.836 30.392 103.78 30.936 105.684 31.464C106.708 31.752 107.556 31.992 107.556 32.76C107.556 33.4 106.916 33.832 105.988 33.832C105.012 33.832 104.068 33.464 103.188 32.824L102.436 33.96C103.428 34.76 104.756 35.192 105.972 35.192ZM113.941 35.192C115.749 35.192 117.077 34.2 117.077 32.632C117.077 30.984 115.621 30.536 114.261 30.136C112.869 29.704 112.357 29.512 112.357 28.872C112.357 28.248 112.997 27.896 113.813 27.896C114.533 27.896 115.365 28.168 116.165 28.664L116.869 27.496C115.973 26.904 114.885 26.536 113.813 26.536C112.053 26.536 110.789 27.528 110.805 29.048C110.805 30.392 111.749 30.936 113.653 31.464C114.677 31.752 115.525 31.992 115.525 32.76C115.525 33.4 114.885 33.832 113.957 33.832C112.981 33.832 112.037 33.464 111.157 32.824L110.405 33.96C111.397 34.76 112.725 35.192 113.941 35.192ZM119.718 37.192C120.742 36.024 121.11 35.336 121.11 34.584C121.11 33.704 120.662 33.064 119.958 33.064C119.35 33.064 118.886 33.56 118.886 34.12C118.886 34.712 119.35 35.192 119.926 35.192C119.798 35.688 119.51 36.2 119.046 36.68L119.718 37.192ZM133.214 35.192C134.782 35.192 136.222 34.52 137.262 33.464L136.126 32.376C135.39 33.176 134.35 33.704 133.214 33.704C131.022 33.704 129.166 31.784 129.166 29.496C129.166 27.224 131.022 25.304 133.214 25.304C134.35 25.304 135.39 25.832 136.126 26.632L137.262 25.544C136.222 24.472 134.782 23.816 133.214 23.816C130.126 23.816 127.502 26.408 127.502 29.496C127.502 32.584 130.126 35.192 133.214 35.192ZM142.76 35.192C145.112 35.192 147.095 33.208 147.095 30.856C147.095 28.504 145.112 26.536 142.76 26.536C140.392 26.536 138.392 28.504 138.392 30.856C138.392 33.208 140.392 35.192 142.76 35.192ZM142.76 33.816C141.24 33.816 139.976 32.472 139.976 30.856C139.976 29.256 141.24 27.912 142.76 27.912C144.248 27.912 145.512 29.256 145.512 30.856C145.512 32.472 144.248 33.816 142.76 33.816ZM154.645 26.728V32.088C154.517 33.064 153.525 33.816 152.373 33.816C151.253 33.816 150.469 32.952 150.469 31.72V26.728H148.917V31.992C148.917 33.864 150.197 35.192 152.021 35.192C153.141 35.192 154.149 34.616 154.645 33.8V35H156.229V26.728H154.645ZM160.191 28.312V26.728H158.607V35H160.191V30.296C160.335 28.856 161.551 27.912 163.263 27.912V26.536C161.839 26.536 160.719 27.224 160.191 28.312ZM167.8 35.192C169.608 35.192 170.936 34.2 170.936 32.632C170.936 30.984 169.48 30.536 168.12 30.136C166.728 29.704 166.216 29.512 166.216 28.872C166.216 28.248 166.856 27.896 167.672 27.896C168.392 27.896 169.224 28.168 170.024 28.664L170.728 27.496C169.832 26.904 168.744 26.536 167.672 26.536C165.912 26.536 164.648 27.528 164.664 29.048C164.664 30.392 165.608 30.936 167.512 31.464C168.536 31.752 169.384 31.992 169.384 32.76C169.384 33.4 168.744 33.832 167.816 33.832C166.84 33.832 165.896 33.464 165.016 32.824L164.264 33.96C165.256 34.76 166.584 35.192 167.8 35.192ZM176.569 33.784C175.145 33.784 174.137 32.792 173.929 31.416H180.441C180.441 28.456 178.985 26.536 176.457 26.536C174.169 26.536 172.329 28.36 172.329 30.84C172.329 33.384 174.281 35.192 176.585 35.192C177.753 35.192 179.193 34.696 179.929 33.912L178.937 32.888C178.441 33.4 177.433 33.784 176.569 33.784ZM176.521 27.944C177.945 27.944 178.729 28.872 178.905 30.152H173.945C174.201 28.808 175.241 27.944 176.521 27.944ZM183.077 37.192C184.101 36.024 184.469 35.336 184.469 34.584C184.469 33.704 184.021 33.064 183.317 33.064C182.709 33.064 182.245 33.56 182.245 34.12C182.245 34.712 182.709 35.192 183.285 35.192C183.157 35.688 182.869 36.2 182.405 36.68L183.077 37.192ZM191.486 35H196.91C198.878 35 200.286 33.768 200.286 32.008C200.286 30.792 199.55 29.8 198.27 29.176C199.262 28.616 199.838 27.896 199.838 26.744C199.838 25.144 198.542 24.008 196.702 24.008H191.486V35ZM193.102 28.584V25.432H196.302C197.406 25.432 198.19 26.104 198.19 27.016C198.19 27.928 197.406 28.584 196.302 28.584H193.102ZM193.102 33.576V29.96H196.542C197.774 29.96 198.638 30.712 198.638 31.768C198.638 32.824 197.774 33.576 196.542 33.576H193.102ZM206.181 35.192C208.533 35.192 210.517 33.208 210.517 30.856C210.517 28.504 208.533 26.536 206.181 26.536C203.813 26.536 201.813 28.504 201.813 30.856C201.813 33.208 203.813 35.192 206.181 35.192ZM206.181 33.816C204.661 33.816 203.397 32.472 203.397 30.856C203.397 29.256 204.661 27.912 206.181 27.912C207.669 27.912 208.933 29.256 208.933 30.856C208.933 32.472 207.669 33.816 206.181 33.816ZM216.291 35.192C218.643 35.192 220.627 33.208 220.627 30.856C220.627 28.504 218.643 26.536 216.291 26.536C213.923 26.536 211.923 28.504 211.923 30.856C211.923 33.208 213.923 35.192 216.291 35.192ZM216.291 33.816C214.771 33.816 213.507 32.472 213.507 30.856C213.507 29.256 214.771 27.912 216.291 27.912C217.779 27.912 219.043 29.256 219.043 30.856C219.043 32.472 217.779 33.816 216.291 33.816ZM230 26.728H228.08L224.032 30.952V23.816H222.464V35H224.032V32.872L225.36 31.528L227.952 35H229.84L226.432 30.472L230 26.728ZM236.126 35H237.742V26.664L244.062 35H245.678V24.008H244.062V32.344L237.742 24.008H236.126V35ZM251.702 26.536C250.79 26.536 249.75 26.776 248.566 27.368L249.142 28.536C249.862 28.168 250.662 27.848 251.478 27.848C253.126 27.848 253.606 28.952 253.606 29.992V30.248C252.806 29.976 251.926 29.8 251.11 29.8C249.286 29.8 247.798 30.904 247.798 32.552C247.798 34.168 249.094 35.192 250.854 35.192C251.862 35.192 252.998 34.728 253.606 33.864V35H255.158V29.992C255.158 27.944 253.926 26.536 251.702 26.536ZM251.158 33.944C250.118 33.944 249.318 33.4 249.318 32.504C249.318 31.608 250.246 30.984 251.35 30.984C252.166 30.984 252.934 31.096 253.606 31.304V32.408C253.334 33.432 252.182 33.944 251.158 33.944ZM266.697 26.536C265.449 26.536 264.393 27.176 264.009 28.2C263.529 27.176 262.553 26.536 261.353 26.536C260.297 26.536 259.433 27.064 259.017 27.88V26.728H257.433V35H259.017V29.832C259.017 28.696 259.849 27.912 261.033 27.912C262.073 27.912 262.793 28.76 262.793 29.976V35H264.345V29.832C264.345 28.696 265.177 27.912 266.361 27.912C267.401 27.912 268.121 28.76 268.121 29.976V35H269.673V29.736C269.673 27.864 268.425 26.536 266.697 26.536ZM275.741 33.784C274.317 33.784 273.309 32.792 273.101 31.416H279.613C279.613 28.456 278.157 26.536 275.629 26.536C273.341 26.536 271.501 28.36 271.501 30.84C271.501 33.384 273.453 35.192 275.757 35.192C276.925 35.192 278.365 34.696 279.101 33.912L278.109 32.888C277.613 33.4 276.605 33.784 275.741 33.784ZM275.693 27.944C277.117 27.944 277.901 28.872 278.077 30.152H273.117C273.373 28.808 274.413 27.944 275.693 27.944Z" fill="#5D5A6F" fill-opacity="0.6"/>
</svg>
